HIERARCHY
ROOT Hips
{
	OFFSET -278.121490 93.318451 465.951996
	CHANNELS 6 Xposition Yposition Zposition Zrotation Yrotation Xrotation 
	JOINT LeftUpLeg
	{
		OFFSET 0.103457 1.857822 10.548516
		CHANNELS 3 Zrotation Yrotation Xrotation
		JOINT LeftLeg
		{
			OFFSET 43.500008 -0.000031 0.000015
			CHANNELS 3 Zrotation Yrotation Xrotation
			JOINT LeftFoot
			{
				OFFSET 42.372192 0.000027 -0.000009
				CHANNELS 3 Zrotation Yrotation Xrotation
				JOINT LeftToe
				{
					OFFSET 17.299999 0.000000 -0.000004
					CHANNELS 3 Zrotation Yrotation Xrotation
					End Site
					{
						OFFSET 0.000000 0.000000 0.000000
					}
				}
			}
		}
	}
	JOINT RightUpLeg
	{
		OFFSET 0.103460 1.857822 -10.548513
		CHANNELS 3 Zrotation Yrotation Xrotation
		JOINT RightLeg
		{
			OFFSET 43.500038 -0.000015 -0.000002
			CHANNELS 3 Zrotation Yrotation Xrotation
			JOINT RightFoot
			{
				OFFSET 42.372269 -0.000019 0.000014
				CHANNELS 3 Zrotation Yrotation Xrotation
				JOINT RightToe
				{
					OFFSET 17.300005 -0.000001 0.000011
					CHANNELS 3 Zrotation Yrotation Xrotation
					End Site
					{
						OFFSET 0.000000 0.000000 0.000000
					}
				}
			}
		}
	}
	JOINT Spine
	{
		OFFSET 6.901966 -2.603743 -0.000003
		CHANNELS 3 Zrotation Yrotation Xrotation
		JOINT Spine1
		{
			OFFSET 12.588103 0.000012 0.000008
			CHANNELS 3 Zrotation Yrotation Xrotation
			JOINT Spine2
			{
				OFFSET 12.343199 0.000004 0.000007
				CHANNELS 3 Zrotation Yrotation Xrotation
				JOINT Neck
				{
					OFFSET 25.832901 -0.000008 -0.000001
					CHANNELS 3 Zrotation Yrotation Xrotation
					JOINT Head
					{
						OFFSET 11.766611 0.000029 -0.000004
						CHANNELS 3 Zrotation Yrotation Xrotation
						End Site
						{
							OFFSET 0.000000 0.000000 0.000000
						}
					}
				}
				JOINT LeftShoulder
				{
					OFFSET 19.745907 -1.480370 6.000077
					CHANNELS 3 Zrotation Yrotation Xrotation
					JOINT LeftArm
					{
						OFFSET 11.284128 -0.000004 -0.000015
						CHANNELS 3 Zrotation Yrotation Xrotation
						JOINT LeftForeArm
						{
							OFFSET 33.000065 0.000010 0.000016
							CHANNELS 3 Zrotation Yrotation Xrotation
							JOINT LeftHand
							{
								OFFSET 25.200001 0.000010 0.000006
								CHANNELS 3 Zrotation Yrotation Xrotation
								End Site
								{
									OFFSET 0.000000 0.000000 0.000000
								}
							}
						}
					}
				}
				JOINT RightShoulder
				{
					OFFSET 19.746094 -1.480385 -6.000086
					CHANNELS 3 Zrotation Yrotation Xrotation
					JOINT RightArm
					{
						OFFSET 11.284142 -0.000011 -0.000013
						CHANNELS 3 Zrotation Yrotation Xrotation
						JOINT RightForeArm
						{
							OFFSET 33.000092 0.000004 0.000015
							CHANNELS 3 Zrotation Yrotation Xrotation
							JOINT RightHand
							{
								OFFSET 25.199759 0.000141 0.000412
								CHANNELS 3 Zrotation Yrotation Xrotation
								End Site
								{
									OFFSET 0.000000 0.000000 0.000000
								}
							}
						}
					}
				}
			}
		}
	}
}
MOTION
Frames: 8
Frame Time: 0.033333
-278.121490 93.318451 465.951996 91.271572 5.771644 89.752101 -174.902608 -2.485781 -177.487807 -8.168008 -3.047234 -2.762127 80.298395 1.671494 -1.385722 21.454555 0.003093 0.000002 -176.129829 2.338811 179.538475 -14.295887 1.846066 1.522590 84.140076 -1.019064 0.416719 21.454558 -0.003112 -0.000017 6.624358 -0.371516 0.040546 3.235686 -0.746727 0.070889 2.917577 -0.746138 0.075383 23.401295 3.707464 1.721423 -22.520406 -2.467477 2.704172 -64.078362 -80.611750 -118.584447 -9.145616 -5.377116 1.898214 -7.574814 -13.552268 0.897395 12.143830 3.189683 4.729334 -75.426858 88.968077 106.377369 -1.265587 2.288328 5.887251 -14.858349 17.764975 -1.221312 17.782524 1.528731 -13.526432 
-278.116913 93.319283 465.961609 91.271545 5.768062 89.756773 -174.895641 -2.484099 -177.488189 -8.157905 -3.047245 -2.759628 80.298381 1.671038 -1.380419 21.454550 0.003094 0.000002 -176.121291 2.341898 179.527547 -14.282663 1.849749 1.531802 84.135841 -1.024829 0.419831 21.454558 -0.003109 -0.000018 6.621049 -0.371504 0.040551 3.229083 -0.744029 0.070885 2.910944 -0.743468 0.075388 23.427018 3.714327 1.728434 -22.535507 -2.476500 2.714771 -63.966791 -80.615650 -118.695546 -9.104213 -5.368288 1.910044 -7.584869 -13.557491 0.897389 12.170902 3.173478 4.684765 -75.250031 88.968077 106.554551 -1.234301 2.306170 5.900887 -14.858728 17.772851 -1.221307 17.768679 1.528730 -13.529294 
-278.089600 93.323631 466.016815 91.275356 5.751782 89.797016 -174.856982 -2.472002 -177.496959 -8.107336 -3.047235 -2.733798 80.298388 1.661321 -1.346364 21.454553 0.003110 0.000004 -176.064819 2.358514 179.457265 -14.209824 1.870705 1.599520 84.115487 -1.068007 0.438531 21.454558 -0.003102 -0.000015 6.603282 -0.364295 0.036245 3.193580 -0.729489 0.062603 2.875456 -0.728962 0.067011 23.585591 3.740802 1.766264 -22.653349 -2.509620 2.766370 -63.350196 -80.623970 -119.310291 -8.886342 -5.301848 1.940467 -7.666822 -13.580215 0.897367 12.266361 3.178332 4.627604 -73.517492 88.967695 108.287574 -1.060272 2.381458 5.971394 -14.845619 17.805972 -1.221316 17.752753 1.525551 -13.576878 
-278.062408 93.325890 466.071014 91.281141 5.741672 89.847819 -174.829907 -2.448798 -177.510838 -8.089784 -3.033391 -2.699441 80.307588 1.643432 -1.320548 21.454550 0.003096 -0.000002 -176.005888 2.371601 179.397091 -14.162291 1.885330 1.672746 84.112373 -1.115959 0.452116 21.454558 -0.003114 -0.000017 6.587416 -0.356146 0.025527 3.161933 -0.712870 0.041472 2.843802 -0.712475 0.045778 23.767788 3.740693 1.792729 -22.829246 -2.547113 2.809916 -62.975683 -80.605665 -119.686976 -8.723481 -5.222136 1.958765 -7.752040 -13.576311 0.897390 12.146769 3.119158 4.982846 -68.530416 88.988185 113.274193 -0.876815 2.378711 6.036627 -14.853532 17.800738 -1.221318 17.823507 1.588543 -13.520863 
-278.035614 93.324722 466.125793 91.285342 5.746009 89.877216 -174.799157 -2.421100 -177.494569 -8.100306 -3.017728 -2.695297 80.337648 1.643559 -1.307254 21.454551 0.003103 0.000001 -175.959142 2.388902 179.362380 -14.162723 1.898828 1.717034 84.131600 -1.145126 0.460266 21.454555 -0.003108 -0.000017 6.576659 -0.345946 0.010613 3.140518 -0.692094 0.011980 2.822385 -0.691885 0.016164 23.932426 3.665870 1.798148 -23.010069 -2.551736 2.821894 -63.052803 -80.533401 -119.618141 -8.653610 -5.155561 1.860897 -7.758445 -13.518693 0.897373 11.850540 3.001415 5.798051 -58.253632 89.031256 123.545295 -0.662759 2.284071 6.137795 -14.894701 17.783251 -1.221317 17.837792 1.607902 -13.439945 
-278.008087 93.321472 466.173492 91.285588 5.771127 89.833797 -174.740322 -2.387101 -177.483490 -8.107855 -3.002041 -2.731462 80.373787 1.669158 -1.305011 21.454551 0.003094 0.000000 -175.940414 2.411402 179.367803 -14.215359 1.892384 1.690321 84.160307 -1.124096 0.472120 21.454557 -0.003114 -0.000018 6.576004 -0.340422 0.010863 3.139199 -0.681056 0.012612 2.821061 -0.680834 0.016738 24.052248 3.581290 1.775863 -23.182115 -2.516113 2.788647 -63.001180 -80.411400 -119.681949 -8.627692 -5.089077 1.721836 -7.727472 -13.501367 0.897388 11.698577 3.536156 6.337256 -46.583789 89.041413 135.209236 -0.439610 2.131737 6.267234 -14.958533 17.792791 -1.221319 17.836711 1.323149 -13.320519 
-277.983093 93.318192 466.221588 91.276128 5.830439 89.700840 -174.612748 -2.355097 -177.467494 -8.070974 -2.992972 -2.824153 80.402624 1.731393 -1.314351 21.454553 0.003092 0.000001 -175.896632 2.429102 179.332422 -14.261987 1.878416 1.635820 84.177970 -1.085542 0.475282 21.454562 -0.003101 -0.000017 6.585717 -0.337213 0.029738 3.158524 -0.676097 0.050399 2.840393 -0.675651 0.054504 24.201862 3.533811 1.778473 -23.398432 -2.531116 2.802281 -62.661672 -80.283717 -120.033130 -8.560375 -5.016191 1.718619 -7.689903 -13.455458 0.897377 11.786236 3.661848 6.373235 -35.937594 89.064349 145.846546 -0.203691 2.089325 6.283541 -14.984764 17.784322 -1.221318 17.799340 0.982941 -13.460451 
-277.963104 93.314728 466.269196 91.256122 5.907531 89.521917 -174.451255 -2.335494 -177.480417 -8.015445 -2.989330 -2.926148 80.432103 1.800174 -1.324170 21.454551 0.003083 -0.000002 -175.833289 2.436401 179.246307 -14.291956 1.866781 1.584674 84.185435 -1.050346 0.475488 21.454558 -0.003112 -0.000018 6.600360 -0.334143 0.058637 3.187613 -0.669796 0.108193 2.869489 -0.668984 0.112234 24.419309 3.523345 1.813012 -23.713428 -2.587937 2.867300 -62.145282 -80.202444 -120.555366 -8.418818 -4.980034 1.815984 -7.671032 -13.386085 0.897374 11.928207 3.491352 6.204011 -26.631731 89.057054 155.144441 -0.001191 2.100191 6.239874 -14.979838 17.765250 -1.221303 17.738437 1.002152 -13.690076 
